<svg xmlns="http://www.w3.org/2000/svg" viewBox="0 0 24 24" width="24" height="24" fill="none" stroke="#1f6feb" stroke-width="2.5" stroke-linecap="round" stroke-linejoin="round">
  <!-- Wrench -->
  <path d="M14.7 6.3a1 1 0 0 0 0 1.4l1.6 1.6a1 1 0 0 0 1.4 0l3.6-3.6a6 6 0 0 1-8.5 6.7L6.3 19a2 2 0 0 1-2.8 0l-.5-.5a2 2 0 0 1 0-2.8l6.6-6.5A6 6 0 0 1 16.3 2.7l-3.6 3.6z"/>
  <!-- Sparkles -->
  <line x1="18" y1="2" x2="18" y2="5"/>
  <line x1="16.5" y1="3.5" x2="19.5" y2="3.5"/>
  <line x1="21" y1="6" x2="21" y2="8"/>
  <line x1="20" y1="7" x2="22" y2="7"/>
</svg>