<svg xmlns="http://www.w3.org/2000/svg" viewBox="0 0 24 24" width="24" height="24" fill="none" stroke="#1f6feb" stroke-width="2.5" stroke-linecap="round" stroke-linejoin="round">
  <!-- Open book -->
  <path d="M2 3h6a4 4 0 0 1 4 4v14a3 3 0 0 0-3-3H2z"/>
  <path d="M22 3h-6a4 4 0 0 0-4 4v14a3 3 0 0 1 3-3h7z"/>
  <!-- Page lines -->
  <line x1="6" y1="8" x2="8" y2="8" opacity="0.5"/>
  <line x1="6" y1="11" x2="8" y2="11" opacity="0.5"/>
  <line x1="6" y1="14" x2="8" y2="14" opacity="0.5"/>
  <line x1="16" y1="8" x2="18" y2="8" opacity="0.5"/>
  <line x1="16" y1="11" x2="18" y2="11" opacity="0.5"/>
  <line x1="16" y1="14" x2="18" y2="14" opacity="0.5"/>
</svg>