<svg xmlns="http://www.w3.org/2000/svg" viewBox="0 0 24 24" width="24" height="24" fill="none" stroke="#1f6feb" stroke-width="2.5" stroke-linecap="round" stroke-linejoin="round">
  <!-- Database cylinder -->
  <ellipse cx="8" cy="5" rx="6" ry="3"/>
  <path d="M2 5v14c0 1.66 2.69 3 6 3s6-1.34 6-3V5"/>
  <path d="M2 9c0 1.66 2.69 3 6 3s6-1.34 6-3" opacity="0.5"/>
  <path d="M2 14c0 1.66 2.69 3 6 3s6-1.34 6-3" opacity="0.5"/>
  <!-- Migration arrow -->
  <line x1="16" y1="12" x2="22" y2="12"/>
  <polyline points="19,9 22,12 19,15"/>
  <!-- Target indicator -->
  <ellipse cx="20" cy="19" rx="3" ry="1.5" opacity="0.5"/>
  <line x1="22" y1="12" x2="22" y2="18" opacity="0.3" stroke-dasharray="2,2"/>
</svg>