<svg xmlns="http://www.w3.org/2000/svg" viewBox="0 0 24 24" width="24" height="24" fill="none" stroke="#1f6feb" stroke-width="2.5" stroke-linecap="round" stroke-linejoin="round">
  <!-- Package box -->
  <path d="M21 16V8a2 2 0 0 0-1-1.73L13 2.27a2 2 0 0 0-2 0L4 6.27A2 2 0 0 0 3 8v8a2 2 0 0 0 1 1.73l7 4a2 2 0 0 0 2 0l7-4A2 2 0 0 0 21 16z"/>
  <polyline points="3.27,6.96 12,12.01 20.73,6.96"/>
  <line x1="12" y1="22.08" x2="12" y2="12"/>
  <!-- Up arrow overlay -->
  <line x1="17" y1="10" x2="17" y2="4"/>
  <polyline points="15,6 17,4 19,6"/>
</svg>